<svg width="14" height="13" viewBox="0 0 14 13" fill="none" xmlns="http://www.w3.org/2000/svg">
<mask id="path-1-outside-1_5505_7514" maskUnits="userSpaceOnUse" x="0" y="-0.500244" width="14" height="14" fill="black">
<rect fill="white" y="-0.500244" width="14" height="14"/>
<path fill-rule="evenodd" clip-rule="evenodd" d="M10.6054 1.7411C9.86526 1.08211 8.91222 0.644814 7.81578 0.529575C7.60372 0.507318 7.3919 0.497697 7.18109 0.500121C4.36084 0.52396 1.71716 2.70572 1.11024 5.62879C1.05831 5.87656 1.0223 6.1274 1.00243 6.37978C1.00166 6.39048 1.00366 6.4012 1.00826 6.4109C1.01012 6.41484 1.01238 6.41855 1.015 6.42199C0.874054 8.37674 1.73566 10.1209 3.21498 11.0962C3.09287 11.0161 2.97418 10.93 2.85941 10.8382C2.79561 10.7888 2.7328 10.7349 2.67197 10.681C2.74798 10.7483 2.82354 10.8164 2.89914 10.8845L2.89931 10.8846C3.25112 11.2015 3.60389 11.5192 4.00724 11.7687C4.16746 11.8662 4.33289 11.9542 4.50267 12.0326C4.81246 12.1778 5.13806 12.2897 5.47404 12.3654C6.61495 12.6275 7.82461 12.4974 8.90568 12.052C9.25913 11.9054 9.59875 11.7276 9.92048 11.5205C9.92441 11.518 9.92799 11.515 9.93119 11.5117C10.5845 11.0923 11.1612 10.5593 11.6326 9.93496C12.2916 9.0679 12.719 8.04739 12.8744 6.96957C13.0376 5.79884 12.8428 4.5757 12.2513 3.54588C12.06 3.21122 11.8299 2.90024 11.5659 2.61938C11.352 2.39283 11.1153 2.18699 10.8792 1.98164L10.8792 1.98158L10.8791 1.98155L10.8791 1.98154L10.8791 1.98152L10.8791 1.98151L10.8791 1.98149L10.8791 1.98148C10.7946 1.90799 10.7101 1.83456 10.6269 1.76027L10.6447 1.77645L10.6235 1.75723L10.6054 1.7411ZM12.111 6.94488L12.1245 6.8861C12.1319 6.85305 12.1391 6.8199 12.146 6.78665C12.2144 6.4578 12.2542 6.13263 12.2673 5.81362C12.2323 6.69352 11.9983 7.57397 11.5973 8.35291C11.8206 7.91057 11.9949 7.43888 12.111 6.94488Z"/>
</mask>
<path fill-rule="evenodd" clip-rule="evenodd" d="M10.6054 1.7411C9.86526 1.08211 8.91222 0.644814 7.81578 0.529575C7.60372 0.507318 7.3919 0.497697 7.18109 0.500121C4.36084 0.52396 1.71716 2.70572 1.11024 5.62879C1.05831 5.87656 1.0223 6.1274 1.00243 6.37978C1.00166 6.39048 1.00366 6.4012 1.00826 6.4109C1.01012 6.41484 1.01238 6.41855 1.015 6.42199C0.874054 8.37674 1.73566 10.1209 3.21498 11.0962C3.09287 11.0161 2.97418 10.93 2.85941 10.8382C2.79561 10.7888 2.7328 10.7349 2.67197 10.681C2.74798 10.7483 2.82354 10.8164 2.89914 10.8845L2.89931 10.8846C3.25112 11.2015 3.60389 11.5192 4.00724 11.7687C4.16746 11.8662 4.33289 11.9542 4.50267 12.0326C4.81246 12.1778 5.13806 12.2897 5.47404 12.3654C6.61495 12.6275 7.82461 12.4974 8.90568 12.052C9.25913 11.9054 9.59875 11.7276 9.92048 11.5205C9.92441 11.518 9.92799 11.515 9.93119 11.5117C10.5845 11.0923 11.1612 10.5593 11.6326 9.93496C12.2916 9.0679 12.719 8.04739 12.8744 6.96957C13.0376 5.79884 12.8428 4.5757 12.2513 3.54588C12.06 3.21122 11.8299 2.90024 11.5659 2.61938C11.352 2.39283 11.1153 2.18699 10.8792 1.98164L10.8792 1.98158L10.8791 1.98155L10.8791 1.98154L10.8791 1.98152L10.8791 1.98151L10.8791 1.98149L10.8791 1.98148C10.7946 1.90799 10.7101 1.83456 10.6269 1.76027L10.6447 1.77645L10.6235 1.75723L10.6054 1.7411ZM12.111 6.94488L12.1245 6.8861C12.1319 6.85305 12.1391 6.8199 12.146 6.78665C12.2144 6.4578 12.2542 6.13263 12.2673 5.81362C12.2323 6.69352 11.9983 7.57397 11.5973 8.35291C11.8206 7.91057 11.9949 7.43888 12.111 6.94488Z" fill="#E99855"/>
<path d="M7.81578 0.529575L7.85173 0.187508L7.85168 0.187503L7.81578 0.529575ZM10.6054 1.7411L10.8348 1.48478L10.8342 1.48421L10.6054 1.7411ZM7.18109 0.500121L7.18399 0.844061L7.18504 0.844049L7.18109 0.500121ZM1.11024 5.62879L1.44688 5.69934L1.44701 5.69871L1.11024 5.62879ZM1.00243 6.37978L0.659532 6.35277L0.659371 6.35501L1.00243 6.37978ZM1.00826 6.4109L0.697373 6.55806L0.697379 6.55807L1.00826 6.4109ZM1.015 6.42199L1.35806 6.44672L1.36741 6.31706L1.28865 6.21362L1.015 6.42199ZM3.21498 11.0962L3.02619 11.3837L3.40431 10.8091L3.21498 11.0962ZM2.85941 10.8382L3.07429 10.5696L3.07009 10.5663L2.85941 10.8382ZM2.67197 10.681L2.90004 10.4235L2.4439 10.9385L2.67197 10.681ZM2.89914 10.8845L2.66895 11.14L2.66902 11.1401L2.89914 10.8845ZM2.89931 10.8846L3.1295 10.6291L3.12943 10.629L2.89931 10.8846ZM4.00724 11.7687L3.82634 12.0612L3.82846 12.0625L4.00724 11.7687ZM4.50267 12.0326L4.6487 11.7212L4.64678 11.7203L4.50267 12.0326ZM5.47404 12.3654L5.55103 12.0302L5.5497 12.0299L5.47404 12.3654ZM8.90568 12.052L9.03672 12.37L9.03741 12.3697L8.90568 12.052ZM9.92048 11.5205L10.1066 11.8097L10.1074 11.8092L9.92048 11.5205ZM9.93119 11.5117L9.74538 11.2223L9.71191 11.2437L9.68423 11.2723L9.93119 11.5117ZM11.6326 9.93496L11.3588 9.72683L11.3581 9.7277L11.6326 9.93496ZM12.8744 6.96957L13.2149 7.01866L13.2151 7.01706L12.8744 6.96957ZM12.2513 3.54588L11.9527 3.71657L11.953 3.71718L12.2513 3.54588ZM11.5659 2.61938L11.8164 2.38378L11.816 2.38326L11.5659 2.61938ZM10.8792 1.98164L10.6519 2.2398L10.6535 2.24116L10.8792 1.98164ZM10.8792 1.98158L11.1065 1.72342L11.1041 1.7214L10.8792 1.98158ZM10.8791 1.98155L10.6466 2.23521L10.6542 2.24174L10.8791 1.98155ZM10.8791 1.98148L11.1115 1.72785L11.1048 1.72196L10.8791 1.98148ZM10.6269 1.76027L10.8559 1.50362L10.3958 2.01508L10.6269 1.76027ZM10.6447 1.77645L10.4139 2.03149L10.8757 1.52164L10.6447 1.77645ZM10.6235 1.75723L10.8542 1.50218L10.8528 1.50091L10.6235 1.75723ZM12.1245 6.8861L12.4597 6.9632L12.4601 6.96158L12.1245 6.8861ZM12.111 6.94488L12.4458 7.02352L12.4462 7.02197L12.111 6.94488ZM12.146 6.78665L11.8093 6.71665V6.71666L12.146 6.78665ZM12.2673 5.81362L12.611 5.82731L11.9237 5.79951L12.2673 5.81362ZM11.5973 8.35291L11.2902 8.19787L11.9031 8.51036L11.5973 8.35291ZM7.77982 0.871641C8.80522 0.979413 9.69071 1.38722 10.3767 1.99799L10.8342 1.48421C10.0398 0.777006 9.01922 0.310215 7.85173 0.187508L7.77982 0.871641ZM7.18504 0.844049C7.38273 0.841776 7.58125 0.850799 7.77987 0.871646L7.85168 0.187503C7.6262 0.163837 7.40107 0.153618 7.17713 0.156193L7.18504 0.844049ZM1.44701 5.69871C2.02231 2.92794 4.53195 0.866477 7.18399 0.84406L7.17818 0.156183C4.18974 0.181443 1.41201 2.4835 0.773471 5.55886L1.44701 5.69871ZM1.34532 6.40678C1.36404 6.16904 1.39796 5.93274 1.44688 5.69934L0.773602 5.55824C0.718664 5.82038 0.680565 6.08577 0.65954 6.35277L1.34532 6.40678ZM1.31914 6.26375C1.3399 6.30762 1.34898 6.35612 1.34549 6.40454L0.659371 6.35501C0.65433 6.42484 0.667423 6.49479 0.697373 6.55806L1.31914 6.26375ZM1.28865 6.21362C1.30048 6.22917 1.31071 6.24595 1.31913 6.26374L0.697379 6.55807C0.709523 6.58372 0.724277 6.60794 0.741347 6.63036L1.28865 6.21362ZM3.40431 10.8091C2.03453 9.90594 1.22557 8.28426 1.35806 6.44672L0.671937 6.39725C0.522542 8.46922 1.43679 10.3358 3.02565 11.3834L3.40431 10.8091ZM2.64454 11.1068C2.76782 11.2054 2.89521 11.2977 3.02619 11.3837L3.40377 10.8087C3.29052 10.7344 3.18055 10.6547 3.07427 10.5696L2.64454 11.1068ZM2.4439 10.9385C2.507 10.9944 2.57624 11.0539 2.64872 11.1101L3.07009 10.5663C3.01498 10.5236 2.95861 10.4754 2.90005 10.4235L2.4439 10.9385ZM3.12933 10.6289C3.0539 10.561 2.97729 10.492 2.90004 10.4235L2.44391 10.9385C2.51867 11.0047 2.59317 11.0718 2.66895 11.14L3.12933 10.6289ZM3.12943 10.629L3.12926 10.6288L2.66902 11.1401L2.66919 11.1403L3.12943 10.629ZM4.18814 11.4761C3.81549 11.2457 3.48523 10.9495 3.1295 10.6291L2.66912 11.1402C3.01701 11.4535 3.39229 11.7928 3.82634 12.0612L4.18814 11.4761ZM4.64678 11.7203C4.48887 11.6474 4.33503 11.5655 4.18602 11.4748L3.82846 12.0625C3.99989 12.1668 4.1769 12.2611 4.35857 12.3449L4.64678 11.7203ZM5.5497 12.0299C5.23806 11.9596 4.93604 11.8559 4.64869 11.7212L4.35666 12.344C4.68888 12.4998 5.03807 12.6197 5.39838 12.7009L5.5497 12.0299ZM8.77464 11.734C7.75369 12.1546 6.61665 12.2749 5.55103 12.0302L5.39705 12.7006C6.61326 12.98 7.89553 12.8402 9.03672 12.37L8.77464 11.734ZM9.73434 11.2313C9.42986 11.4272 9.10845 11.5956 8.77395 11.7343L9.03741 12.3697C9.40981 12.2153 9.76764 12.0279 10.1066 11.8097L9.73434 11.2313ZM9.68423 11.2723C9.69898 11.2571 9.71551 11.2435 9.73357 11.2318L10.1074 11.8092C10.1333 11.7925 10.157 11.7729 10.1782 11.7511L9.68423 11.2723ZM11.3581 9.7277C10.9113 10.3195 10.3646 10.8247 9.74538 11.2223L10.117 11.8011C10.8043 11.3599 11.4111 10.7991 11.9071 10.1422L11.3581 9.7277ZM12.534 6.92048C12.3869 7.94048 11.9825 8.90626 11.3588 9.72683L11.9065 10.1431C12.6008 9.22954 13.0511 8.15429 13.2148 7.01866L12.534 6.92048ZM11.953 3.71718C12.5024 4.67377 12.6876 5.81852 12.5338 6.92208L13.2151 7.01706C13.3876 5.77916 13.1831 4.47764 12.5496 3.37458L11.953 3.71718ZM11.3153 2.85498C11.5608 3.11617 11.7748 3.40536 11.9527 3.71657L12.5499 3.37518C12.3452 3.01707 12.099 2.68431 11.8164 2.38378L11.3153 2.85498ZM10.6535 2.24116C10.8918 2.44841 11.1154 2.64331 11.3158 2.8555L11.816 2.38326C11.5885 2.14234 11.3389 1.92557 11.105 1.72213L10.6535 2.24116ZM10.6519 2.23974L10.652 2.2398L11.1065 1.72349L11.1065 1.72343L10.6519 2.23974ZM10.6542 2.24174L10.6542 2.24177L11.1041 1.7214L11.1041 1.72137L10.6542 2.24174ZM10.6467 2.23508L10.6467 2.2351L11.1116 1.72801L11.1115 1.72799L10.6467 2.23508ZM10.6467 2.23507L10.6467 2.23508L11.1115 1.72799L11.1115 1.72798L10.6467 2.23507ZM10.6467 2.23505L10.6467 2.23507L11.1115 1.72798L11.1115 1.72796L10.6467 2.23505ZM10.6467 2.23504L10.6467 2.23505L11.1115 1.72796L11.1115 1.72795L10.6467 2.23504ZM10.6466 2.23502L10.6467 2.23504L11.1115 1.72795L11.1115 1.72793L10.6466 2.23502ZM10.3979 2.01693C10.4831 2.0929 10.5691 2.16775 10.6533 2.24099L11.1048 1.72196C11.02 1.64823 10.9372 1.57623 10.8559 1.50362L10.3979 2.01693ZM10.8757 1.52164L10.8579 1.50547L10.3958 2.01508L10.4137 2.03125L10.8757 1.52164ZM10.3927 2.01227L10.4139 2.03149L10.8755 1.5214L10.8542 1.50218L10.3927 2.01227ZM10.3761 1.99741L10.3941 2.01354L10.8528 1.50091L10.8348 1.48479L10.3761 1.99741ZM11.7893 6.80901L11.7758 6.86778L12.4462 7.02197L12.4597 6.9632L11.7893 6.80901ZM11.8093 6.71666C11.8027 6.74807 11.7959 6.77939 11.7889 6.81062L12.4601 6.96158C12.4679 6.9267 12.4755 6.89172 12.4828 6.85664L11.8093 6.71666ZM11.9237 5.79951C11.9113 6.09949 11.8738 6.40597 11.8093 6.71665L12.4828 6.85664C12.5549 6.50963 12.5971 6.16577 12.611 5.82772L11.9237 5.79951ZM11.9031 8.51036C12.3269 7.68717 12.5739 6.75769 12.611 5.82731L11.9236 5.79993C11.8906 6.62934 11.6697 7.46077 11.2915 8.19547L11.9031 8.51036ZM11.7761 6.86623C11.6665 7.33299 11.5017 7.77909 11.2902 8.19787L11.9043 8.50796C12.1396 8.04205 12.3234 7.54476 12.4458 7.02352L11.7761 6.86623Z" fill="#4C6042" mask="url(#path-1-outside-1_5505_7514)"/>
<path d="M12.8743 6.96953C13.0375 5.7988 12.8427 4.57566 12.2512 3.54584C12.0599 3.21117 11.8298 2.9002 11.5658 2.61934C11.2666 2.30243 10.9228 2.02606 10.5984 1.73486C11.4975 2.53282 12.0623 3.65361 12.2225 4.84016C12.3827 6.02671 12.1468 7.28545 11.5969 8.35334C11.052 9.41828 10.2325 10.3184 9.2231 10.9608C8.21918 11.5951 7.04711 11.9461 5.85427 11.913C4.77122 11.8789 3.70844 11.5175 2.85931 10.8382C2.79551 10.7887 2.7327 10.7348 2.67188 10.681C3.10163 11.0616 3.51705 11.4656 4.00714 11.7686C4.45959 12.0439 4.95359 12.2443 5.47001 12.3619C6.61092 12.6264 7.82255 12.4964 8.90165 12.0509C9.98376 11.6006 10.9264 10.8702 11.6325 9.93491C12.2915 9.06786 12.7189 8.04734 12.8743 6.96953Z" fill="url(#paint0_linear_5505_7514)"/>
<path opacity="0.5" d="M8.90568 12.0519C9.25913 11.9054 9.59875 11.7275 9.92049 11.5204C9.9341 11.5116 9.94366 11.4978 9.94709 11.4819C9.95052 11.4661 9.94753 11.4495 9.93878 11.4359L9.93186 11.427L9.60497 11.0799C9.59507 11.0696 9.58187 11.0632 9.56767 11.0616C9.55348 11.0601 9.53919 11.0636 9.52732 11.0715L9.4205 11.1412C8.3963 11.7879 7.19851 12.1459 5.98391 12.1122C5.12311 12.0882 4.28149 11.8525 3.53345 11.426C4.09969 11.8838 4.76367 12.2052 5.47404 12.3654C6.61495 12.6274 7.82461 12.4974 8.90568 12.0519Z" fill="url(#paint1_linear_5505_7514)" fill-opacity="0.5"/>
<path d="M7.81569 0.529575C10.8591 0.849449 12.7977 3.6507 12.1459 6.78665C11.4941 9.9226 8.49965 12.2057 5.45622 11.8858C2.4128 11.566 0.474678 8.76473 1.12599 5.62877C1.77731 2.49282 4.77276 0.210195 7.81569 0.529575Z" fill="url(#paint2_linear_5505_7514)"/>
<path style="mix-blend-mode:overlay" opacity="0.61" d="M7.77509 0.661639C4.83799 0.351653 1.94688 2.55616 1.31832 5.58286C1.27279 5.80046 1.23976 6.0205 1.21941 6.24189C1.21859 6.25276 1.22073 6.26365 1.22561 6.2734C1.23048 6.28315 1.23791 6.29139 1.2471 6.29726C2.47357 7.17432 3.95127 7.75128 5.60849 7.9253C7.82949 8.15866 10.0361 7.63262 11.9614 6.55187C11.9695 6.54742 11.9765 6.54119 11.9819 6.53366C11.9873 6.52613 11.991 6.51749 11.9926 6.50837C12.5029 3.55979 10.6499 0.963715 7.77509 0.661639Z" fill="url(#paint3_linear_5505_7514)"/>
<path opacity="0.5" d="M5.91956 11.6164C3.20698 11.3311 1.2293 8.96741 1.84056 6.03712C2.45182 3.10684 5.25291 0.968577 8.09753 1.26769C9.98521 1.46544 11.2542 2.76422 11.7572 4.39771C11.762 4.4126 11.7724 4.42507 11.7861 4.43251C11.7999 4.43995 11.816 4.44179 11.8311 4.43765C11.8462 4.43351 11.8592 4.42371 11.8672 4.41028C11.8753 4.39685 11.8778 4.38084 11.8744 4.36557C11.4347 2.3692 9.84673 0.845967 7.68211 0.618545C4.73265 0.306086 1.83166 2.51703 1.20359 5.5541C0.575515 8.59117 2.44786 11.3044 5.39485 11.6139C5.66008 11.6422 5.9271 11.6499 6.19354 11.6371C6.10254 11.6327 6.01105 11.6263 5.91956 11.6164Z" fill="#94512A"/>
<path d="M7.37516 1.14258C7.54678 1.14258 7.71829 1.15149 7.88899 1.16928C9.15997 1.30277 10.2588 1.92472 10.9863 2.92241C11.3666 3.44544 11.6297 4.04422 11.7578 4.67801C11.8977 5.37004 11.8934 6.08349 11.7449 6.77375C11.4632 8.08737 10.7465 9.26763 9.71089 10.1238C8.67877 10.9835 7.42214 11.4587 6.17242 11.4587C6.00064 11.4587 5.82896 11.4498 5.6581 11.432C4.3886 11.2985 3.28874 10.676 2.56126 9.68031C2.18078 9.15537 1.91813 8.55451 1.79126 7.91877C1.65181 7.22685 1.65635 6.51362 1.80461 5.82352C2.08559 4.51005 2.80133 3.32963 3.8362 2.473C4.86831 1.61325 6.12495 1.13813 7.37516 1.13813M7.37516 0.648682C4.56812 0.650659 1.92726 2.81661 1.32342 5.72366C0.680513 8.8255 2.59687 11.3479 5.60667 11.6643C5.7946 11.6841 5.98345 11.694 6.17242 11.694C8.97995 11.694 11.3933 9.61455 11.9972 6.7075C12.6401 3.60517 10.9507 0.996242 7.9419 0.679829C7.75394 0.660471 7.5651 0.650735 7.37614 0.650659L7.37516 0.648682Z" fill="#E99855"/>
<path d="M7.24454 0.994396C7.41798 0.994306 7.59132 1.00338 7.76381 1.02159C9.04715 1.15606 10.1594 1.78543 10.8948 2.79202C11.2792 3.32086 11.5453 3.92618 11.6752 4.5669C11.8162 5.26667 11.8116 5.98795 11.6618 6.68588C11.3766 8.01413 10.6521 9.20755 9.605 10.0735C8.56151 10.9426 7.29102 11.4212 6.02746 11.4212C5.85368 11.4216 5.68 11.4125 5.5072 11.394C4.22386 11.259 3.11213 10.6302 2.37674 9.62309C1.99204 9.0944 1.72586 8.48903 1.59635 7.84821C1.45485 7.14866 1.4594 6.42743 1.6097 5.72972C1.8946 4.40151 2.61925 3.20816 3.66651 2.34261C4.70901 1.47347 5.98048 0.994396 7.24404 0.994396M7.24404 0.5C4.40585 0.5 1.7363 2.68968 1.12604 5.62886C0.474722 8.76482 2.41185 11.5666 5.45626 11.8859C5.64632 11.9061 5.83732 11.9162 6.02845 11.9161C8.86615 11.9161 11.5357 9.72592 12.146 6.78674C12.7978 3.65079 10.8592 0.849538 7.81574 0.529664C7.62581 0.509896 7.43499 0.499995 7.24404 0.5Z" fill="url(#paint4_linear_5505_7514)"/>
<path d="M5.25295 3.3561H5.24652C5.23296 3.3542 5.21915 3.35693 5.20734 3.36385C5.19552 3.37077 5.18638 3.38147 5.18141 3.39422C5.17643 3.40698 5.1759 3.42104 5.17991 3.43413C5.18392 3.44722 5.19223 3.45857 5.20349 3.46635L5.21042 3.47031C5.2223 3.47682 5.23169 3.48707 5.23712 3.49948L5.27174 3.57858C5.27707 3.59071 5.27828 3.60426 5.2752 3.61714C5.27144 3.63168 5.27319 3.64709 5.28012 3.66041C5.28704 3.67373 5.29865 3.68402 5.31271 3.6893C5.32677 3.69458 5.34228 3.69447 5.35627 3.689C5.37025 3.68353 5.38171 3.67308 5.38845 3.65966C5.39478 3.64782 5.40487 3.63842 5.41714 3.63296L5.49379 3.59786C5.50645 3.59252 5.52047 3.59131 5.53385 3.5944H5.54028C5.54804 3.59623 5.55609 3.5965 5.56396 3.5952C5.57183 3.5939 5.57936 3.59105 5.58612 3.58682C5.59288 3.58259 5.59873 3.57706 5.60334 3.57056C5.60795 3.56405 5.61123 3.5567 5.61298 3.54892C5.61589 3.53614 5.61463 3.52276 5.60938 3.51074C5.60413 3.49873 5.59516 3.48872 5.5838 3.48217L5.57688 3.47822C5.565 3.47171 5.5556 3.46145 5.55017 3.44905L5.51555 3.36995C5.51023 3.35781 5.50901 3.34427 5.51209 3.33138C5.51363 3.31787 5.5106 3.30423 5.50348 3.29264C5.49635 3.28105 5.48555 3.27219 5.47279 3.26746C5.46003 3.26273 5.44606 3.26242 5.4331 3.26657C5.42014 3.27072 5.40895 3.27909 5.40131 3.29035C5.39517 3.30245 5.38504 3.31205 5.37263 3.31754L5.29597 3.35264C5.28253 3.35897 5.26724 3.3602 5.25295 3.3561Z" fill="white"/>
<path opacity="0.7" d="M7.79937 0.530158C7.60946 0.510226 7.41864 0.50016 7.22768 0.5C4.38999 0.5 1.72044 2.68968 1.11017 5.62886C1.05824 5.87664 1.02223 6.12748 1.00236 6.37985C1.00159 6.39056 1.00359 6.40128 1.00819 6.41098C1.01278 6.42068 1.0198 6.42903 1.02857 6.43522C1.14726 6.51729 1.26793 6.59673 1.39058 6.67352C1.39959 6.6792 1.40995 6.68239 1.42059 6.68277C1.43124 6.68315 1.4418 6.6807 1.45119 6.67568C1.46059 6.67066 1.46849 6.66324 1.47408 6.65418C1.47968 6.64511 1.48278 6.63473 1.48306 6.62408C1.49528 6.32345 1.53217 6.02432 1.59334 5.72972C1.87844 4.40147 2.60326 3.20814 3.65064 2.34261C4.69364 1.47347 5.96461 0.994396 7.22818 0.994396C7.40179 0.994306 7.57528 1.00338 7.74794 1.02159C9.03376 1.15656 10.1435 1.78543 10.8789 2.79251C11.2632 3.32138 11.5292 3.9267 11.6588 4.5674C11.8003 5.26695 11.7957 5.98817 11.6454 6.68588C11.642 6.70269 11.6385 6.7195 11.6346 6.73532C11.6328 6.74339 11.6328 6.75171 11.6343 6.7598C11.6359 6.7679 11.6391 6.77559 11.6437 6.78242C11.6483 6.78925 11.6543 6.79508 11.6612 6.79956C11.6681 6.80404 11.6759 6.80708 11.684 6.80849C11.6978 6.81142 11.7121 6.80949 11.7246 6.80305C11.868 6.72791 12.0099 6.64996 12.1504 6.56921C12.1583 6.56464 12.1651 6.55837 12.1704 6.55084C12.1756 6.54332 12.179 6.53473 12.1805 6.5257C12.6711 3.49703 10.7587 0.840639 7.79937 0.530158Z" fill="url(#paint5_linear_5505_7514)"/>
<path d="M9.28407 4.86887C9.28407 4.89804 9.25785 4.91287 9.20444 4.91287C9.00663 4.91287 8.7043 4.89556 8.29745 4.86096C7.89061 4.82635 7.58696 4.80987 7.3865 4.81152C7.13132 4.81152 6.98295 4.82091 6.94141 4.8397C6.8425 4.88452 6.79305 5.01208 6.79305 5.22236C6.79305 5.4745 6.85684 5.61788 6.98444 5.65248C7.06452 5.66839 7.14614 5.67519 7.22775 5.67275C7.41139 5.67275 7.68586 5.6627 8.05117 5.6426C8.41647 5.62249 8.69094 5.6126 8.87458 5.61293C8.96195 5.61293 9.0058 5.84678 9.00613 6.31448C9.00613 6.72087 8.99146 6.95736 8.96212 7.02394C8.95479 7.04614 8.94025 7.06526 8.9208 7.07825C8.90136 7.09124 8.87812 7.09735 8.8548 7.09563C8.88777 7.09563 8.80403 7.0864 8.60357 7.06794C8.31839 7.03992 7.88731 7.02592 7.31034 7.02592C7.12439 7.02592 7.01955 7.02723 6.99581 7.02987C6.85998 7.0513 6.79206 7.10848 6.79206 7.20143C6.79206 7.57849 6.80854 8.0129 6.84151 8.50465C6.86822 8.94862 6.88157 9.14638 6.88157 9.09793C6.88157 9.16714 6.7975 9.20719 6.63034 9.21757C6.67551 9.21494 6.55715 9.21362 6.27526 9.21362C5.77808 9.21362 5.45778 9.19631 5.31436 9.16171C5.23721 9.14341 5.19864 9.10188 5.19864 9.03811C5.19864 8.74345 5.20869 8.30047 5.2288 7.70917C5.24892 7.11787 5.25881 6.67473 5.25848 6.37974C5.25848 6.02872 5.24199 5.58755 5.20902 5.05624C5.16122 4.23522 5.13583 3.79405 5.13286 3.73274L5.12891 3.6833C5.12891 3.61656 5.16649 3.58443 5.24859 3.58443C5.4464 3.58443 5.74313 3.58838 6.13877 3.59629C6.5344 3.6042 6.83278 3.60816 7.03389 3.60816C7.24654 3.60816 7.56618 3.59168 7.99281 3.55872C8.41944 3.52576 8.73908 3.50928 8.95173 3.50928C9.08361 3.50928 9.15812 3.56366 9.17527 3.67243C9.17527 3.78713 9.18021 3.95819 9.19109 4.1866C9.19653 4.24543 9.21384 4.35816 9.24302 4.52576C9.26625 4.63878 9.27998 4.75355 9.28407 4.86887Z" fill="#E1892B"/>
<path d="M9.24499 4.72547C9.24499 4.75464 9.21878 4.76947 9.16537 4.76947C8.96755 4.76947 8.66522 4.75299 8.25838 4.72003C7.85153 4.68707 7.54788 4.67059 7.34743 4.67059C7.09224 4.67059 6.94388 4.67982 6.90234 4.69828C6.80343 4.74376 6.75397 4.87148 6.75397 5.08143C6.75397 5.33358 6.81777 5.47695 6.94536 5.51156C7.02544 5.52747 7.10707 5.53427 7.18868 5.53183C7.37199 5.53183 7.64646 5.52178 8.01209 5.50167C8.37772 5.48157 8.6522 5.47168 8.83551 5.47201C8.92321 5.47201 8.96706 5.70586 8.96706 6.17356C8.96706 6.57995 8.95239 6.81644 8.92304 6.88301C8.91564 6.90517 8.90108 6.92424 8.88165 6.93721C8.86223 6.95019 8.83903 6.95634 8.81573 6.9547C8.8487 6.9547 8.76495 6.94531 8.5645 6.92652C8.27964 6.90048 7.84889 6.8873 7.27225 6.88697C7.08631 6.88697 6.9813 6.88829 6.95723 6.89092C6.82172 6.91235 6.75397 6.96937 6.75397 7.06198C6.75397 7.4397 6.77046 7.87428 6.80343 8.36571C6.83013 8.80967 6.84348 9.00743 6.84348 8.95898C6.84348 9.0282 6.75941 9.06824 6.59226 9.07863C6.63709 9.07599 6.51873 9.07467 6.23717 9.07467C5.74032 9.07467 5.42002 9.05819 5.27627 9.02523C5.19913 9.00694 5.16055 8.96541 5.16055 8.90163C5.16055 8.60697 5.17061 8.16383 5.19072 7.5722C5.21083 6.98057 5.22072 6.5376 5.22039 6.24327C5.22039 5.89224 5.20391 5.45108 5.17094 4.91977C5.12313 4.09841 5.09774 3.65725 5.09478 3.59627L5.09082 3.54683C5.09082 3.48058 5.12791 3.44795 5.2105 3.44795C5.40832 3.44795 5.70504 3.45191 6.10068 3.45982C6.49631 3.46773 6.79469 3.47168 6.9958 3.47168C7.20846 3.47168 7.5281 3.4552 7.95473 3.42224C8.38135 3.38928 8.70099 3.3728 8.91365 3.3728C9.04668 3.3728 9.12086 3.42719 9.13718 3.53595C9.13718 3.65065 9.14213 3.82171 9.15301 4.05012C9.15845 4.10896 9.17526 4.22168 9.20246 4.38928C9.22581 4.49999 9.24004 4.61243 9.24499 4.72547Z" fill="#FFF27E"/>
<defs>
<linearGradient id="paint0_linear_5505_7514" x1="14.04" y1="-3.89433" x2="4.09705" y2="16.8385" gradientUnits="userSpaceOnUse">
<stop stop-color="#FFD243"/>
<stop offset="1" stop-color="#CD571B"/>
</linearGradient>
<linearGradient id="paint1_linear_5505_7514" x1="8.15397" y1="8.51056" x2="5.59744" y2="13.8417" gradientUnits="userSpaceOnUse">
<stop stop-color="#E08C3C"/>
<stop offset="1" stop-color="#FFD06F"/>
</linearGradient>
<linearGradient id="paint2_linear_5505_7514" x1="3.53739" y1="21.7303" x2="10.3626" y2="-12.4807" gradientUnits="userSpaceOnUse">
<stop stop-color="#F5942A"/>
<stop offset="1" stop-color="#F5D85D"/>
</linearGradient>
<linearGradient id="paint3_linear_5505_7514" x1="4.96558" y1="14.5097" x2="9.42676" y2="-7.85287" gradientUnits="userSpaceOnUse">
<stop stop-color="#E08C3C"/>
<stop offset="1" stop-color="#FFD06F"/>
</linearGradient>
<linearGradient id="paint4_linear_5505_7514" x1="8.87109" y1="-2.60184" x2="3.02986" y2="20.4374" gradientUnits="userSpaceOnUse">
<stop offset="0.2" stop-color="#FFDE43"/>
<stop offset="0.56" stop-color="#FFD23E"/>
<stop offset="1" stop-color="#FFBD37"/>
</linearGradient>
<linearGradient id="paint5_linear_5505_7514" x1="8.56394" y1="-1.50131" x2="4.7744" y2="13.4448" gradientUnits="userSpaceOnUse">
<stop offset="0.02" stop-color="#FFFFA0"/>
<stop offset="0.98" stop-color="#FFEB6A"/>
</linearGradient>
</defs>
</svg>
