<svg width="23" height="24" viewBox="0 0 23 24" fill="none" xmlns="http://www.w3.org/2000/svg">
<rect x="0.530762" y="1.22046" width="21.9421" height="21.9421" rx="10.971" fill="url(#paint0_linear_5495_5323)"/>
<rect x="0.530762" y="1.22046" width="21.9421" height="21.9421" rx="10.971" stroke="black" stroke-miterlimit="10"/>
<g clip-path="url(#clip0_5495_5323)">
<path d="M11.502 20.4192C16.0463 20.4192 19.7302 16.7353 19.7302 12.1909C19.7302 7.64657 16.0463 3.96265 11.502 3.96265C6.9576 3.96265 3.27368 7.64657 3.27368 12.1909C3.27368 16.7353 6.9576 20.4192 11.502 20.4192Z" fill="#0088CC"/>
<path fill-rule="evenodd" clip-rule="evenodd" d="M9.20936 9.3999H13.8231C13.9994 9.3999 14.1463 9.42929 14.3226 9.51745C14.5284 9.60561 14.6459 9.75254 14.7047 9.87009C14.7047 9.87009 14.7047 9.89948 14.7341 9.89948C14.8222 10.0464 14.881 10.2227 14.881 10.4284C14.881 10.6048 14.8516 10.7811 14.7341 10.9574L11.8248 15.9531C11.766 16.0707 11.6485 16.1295 11.5015 16.1295C11.384 16.1295 11.2664 16.0707 11.1783 15.9531L8.32776 10.9574C8.26899 10.8398 8.15144 10.6929 8.15144 10.4578C8.12206 10.2521 8.18083 10.0758 8.26899 9.89948C8.35715 9.72316 8.50408 9.57622 8.70979 9.51745C8.88611 9.3999 9.09182 9.3999 9.20936 9.3999ZM11.1489 10.1052H9.20936C9.09182 10.1052 9.03304 10.1052 9.00366 10.1346C8.94488 10.164 8.9155 10.1933 8.88611 10.2521C8.85672 10.2815 8.85672 10.3403 8.85672 10.399C8.85672 10.4284 8.88611 10.4578 8.94488 10.5754L11.1489 14.3956V10.1052ZM11.8542 10.1052V14.425L14.0876 10.5754C14.1169 10.5166 14.1169 10.4578 14.1169 10.399C14.1169 10.3403 14.1169 10.2815 14.0876 10.2521C14.0582 10.2227 14.0582 10.1933 14.0288 10.1933L13.9994 10.164C13.9406 10.1346 13.8818 10.1346 13.7937 10.1346H11.8542V10.1052Z" fill="white"/>
</g>
<defs>
<linearGradient id="paint0_linear_5495_5323" x1="11.5017" y1="29.8144" x2="11.5017" y2="-2.07034" gradientUnits="userSpaceOnUse">
<stop stop-color="#43466E"/>
<stop offset="1" stop-color="#585E81"/>
</linearGradient>
<clipPath id="clip0_5495_5323">
<rect width="16.4565" height="16.4565" fill="white" transform="translate(3.27344 3.96313)"/>
</clipPath>
</defs>
</svg>
