<svg width="189" height="15" viewBox="0 0 189 15" fill="none" xmlns="http://www.w3.org/2000/svg">
<g filter="url(#filter0_f_5505_7524)">
<path d="M2.99731 3.92267C2.99731 3.54159 3.30624 3.23267 3.68731 3.23267H180.494C180.742 3.23267 180.971 3.36601 181.094 3.58185L185.415 11.1895C185.677 11.6495 185.344 12.2203 184.815 12.2203H3.68731C3.30624 12.2203 2.99731 11.9114 2.99731 11.5303V3.92267Z" fill="url(#paint0_linear_5505_7524)"/>
</g>
<path d="M2.76196 3.92267C2.76196 3.54159 3.07089 3.23267 3.45196 3.23267H180.324C180.574 3.23267 180.804 3.36753 180.926 3.58532L185.19 11.1929C185.447 11.6529 185.115 12.2203 184.588 12.2203H3.45196C3.07088 12.2203 2.76196 11.9114 2.76196 11.5303V3.92267Z" fill="url(#paint1_linear_5505_7524)"/>
<defs>
<filter id="filter0_f_5505_7524" x="0.254558" y="0.48991" width="187.995" height="14.4731" filterUnits="userSpaceOnUse" color-interpolation-filters="sRGB">
<feFlood flood-opacity="0" result="BackgroundImageFix"/>
<feBlend mode="normal" in="SourceGraphic" in2="BackgroundImageFix" result="shape"/>
<feGaussianBlur stdDeviation="1.37138" result="effect1_foregroundBlur_5505_7524"/>
</filter>
<linearGradient id="paint0_linear_5505_7524" x1="96.6971" y1="11.831" x2="96.6971" y2="2.31272" gradientUnits="userSpaceOnUse">
<stop stop-color="#2A4EBF"/>
<stop offset="1" stop-color="#00C8FF"/>
</linearGradient>
<linearGradient id="paint1_linear_5505_7524" x1="96.4618" y1="11.831" x2="96.4618" y2="2.31272" gradientUnits="userSpaceOnUse">
<stop stop-color="#2A4EBF"/>
<stop offset="1" stop-color="#00C8FF"/>
</linearGradient>
</defs>
</svg>
